<mxfile host="app.diagrams.net" modified="2022-11-19T09:49:07.765Z" agent="5.0 (Windows NT 10.0; Win64; x64) AppleWebKit/537.36 (KHTML, like Gecko) Chrome/107.0.0.0 Safari/537.36 Edg/107.0.1418.52" etag="CNhcDJzM_Z7ywJq5UzFM" version="20.5.3" type="github">
  <diagram id="uD3EZ3HhomAOq2K_JjnO" name="Page-1">
    <mxGraphModel dx="2177" dy="1894" grid="1" gridSize="10" guides="1" tooltips="1" connect="1" arrows="1" fold="1" page="1" pageScale="1" pageWidth="850" pageHeight="1100" math="0" shadow="0">
      <root>
        <mxCell id="0" />
        <mxCell id="1" parent="0" />
        <mxCell id="YFqDpfXZJAM295YXAOaQ-2" value="Request" style="swimlane;fontStyle=1;align=center;verticalAlign=top;childLayout=stackLayout;horizontal=1;startSize=26;horizontalStack=0;resizeParent=1;resizeParentMax=0;resizeLast=0;collapsible=1;marginBottom=0;" parent="1" vertex="1">
          <mxGeometry x="530" y="130" width="160" height="60" as="geometry" />
        </mxCell>
        <mxCell id="YFqDpfXZJAM295YXAOaQ-3" value="- roomNumber: int" style="text;strokeColor=none;fillColor=none;align=left;verticalAlign=top;spacingLeft=4;spacingRight=4;overflow=hidden;rotatable=0;points=[[0,0.5],[1,0.5]];portConstraint=eastwest;" parent="YFqDpfXZJAM295YXAOaQ-2" vertex="1">
          <mxGeometry y="26" width="160" height="26" as="geometry" />
        </mxCell>
        <mxCell id="YFqDpfXZJAM295YXAOaQ-4" value="" style="line;strokeWidth=1;fillColor=none;align=left;verticalAlign=middle;spacingTop=-1;spacingLeft=3;spacingRight=3;rotatable=0;labelPosition=right;points=[];portConstraint=eastwest;strokeColor=inherit;" parent="YFqDpfXZJAM295YXAOaQ-2" vertex="1">
          <mxGeometry y="52" width="160" height="8" as="geometry" />
        </mxCell>
        <mxCell id="YFqDpfXZJAM295YXAOaQ-11" value="Employee" style="swimlane;fontStyle=1;align=center;verticalAlign=top;childLayout=stackLayout;horizontal=1;startSize=26;horizontalStack=0;resizeParent=1;resizeParentMax=0;resizeLast=0;collapsible=1;marginBottom=0;" parent="1" vertex="1">
          <mxGeometry x="530" y="-31" width="160" height="112" as="geometry" />
        </mxCell>
        <mxCell id="YFqDpfXZJAM295YXAOaQ-12" value="- lastName: String" style="text;strokeColor=none;fillColor=none;align=left;verticalAlign=top;spacingLeft=4;spacingRight=4;overflow=hidden;rotatable=0;points=[[0,0.5],[1,0.5]];portConstraint=eastwest;" parent="YFqDpfXZJAM295YXAOaQ-11" vertex="1">
          <mxGeometry y="26" width="160" height="26" as="geometry" />
        </mxCell>
        <mxCell id="WLrUp1BpfOeP7ckls-Xc-1" value="- firstName: String" style="text;strokeColor=none;fillColor=none;align=left;verticalAlign=top;spacingLeft=4;spacingRight=4;overflow=hidden;rotatable=0;points=[[0,0.5],[1,0.5]];portConstraint=eastwest;" vertex="1" parent="YFqDpfXZJAM295YXAOaQ-11">
          <mxGeometry y="52" width="160" height="26" as="geometry" />
        </mxCell>
        <mxCell id="YFqDpfXZJAM295YXAOaQ-15" value="- ID: int" style="text;strokeColor=none;fillColor=none;align=left;verticalAlign=top;spacingLeft=4;spacingRight=4;overflow=hidden;rotatable=0;points=[[0,0.5],[1,0.5]];portConstraint=eastwest;" parent="YFqDpfXZJAM295YXAOaQ-11" vertex="1">
          <mxGeometry y="78" width="160" height="26" as="geometry" />
        </mxCell>
        <mxCell id="YFqDpfXZJAM295YXAOaQ-13" value="" style="line;strokeWidth=1;fillColor=none;align=left;verticalAlign=middle;spacingTop=-1;spacingLeft=3;spacingRight=3;rotatable=0;labelPosition=right;points=[];portConstraint=eastwest;strokeColor=inherit;" parent="YFqDpfXZJAM295YXAOaQ-11" vertex="1">
          <mxGeometry y="104" width="160" height="8" as="geometry" />
        </mxCell>
        <mxCell id="YFqDpfXZJAM295YXAOaQ-19" value="Room" style="swimlane;fontStyle=1;align=center;verticalAlign=top;childLayout=stackLayout;horizontal=1;startSize=26;horizontalStack=0;resizeParent=1;resizeParentMax=0;resizeLast=0;collapsible=1;marginBottom=0;" parent="1" vertex="1">
          <mxGeometry x="-230" y="-100" width="160" height="60" as="geometry" />
        </mxCell>
        <mxCell id="YFqDpfXZJAM295YXAOaQ-20" value="- number: int" style="text;strokeColor=none;fillColor=none;align=left;verticalAlign=top;spacingLeft=4;spacingRight=4;overflow=hidden;rotatable=0;points=[[0,0.5],[1,0.5]];portConstraint=eastwest;" parent="YFqDpfXZJAM295YXAOaQ-19" vertex="1">
          <mxGeometry y="26" width="160" height="26" as="geometry" />
        </mxCell>
        <mxCell id="YFqDpfXZJAM295YXAOaQ-21" value="" style="line;strokeWidth=1;fillColor=none;align=left;verticalAlign=middle;spacingTop=-1;spacingLeft=3;spacingRight=3;rotatable=0;labelPosition=right;points=[];portConstraint=eastwest;strokeColor=inherit;" parent="YFqDpfXZJAM295YXAOaQ-19" vertex="1">
          <mxGeometry y="52" width="160" height="8" as="geometry" />
        </mxCell>
        <mxCell id="YFqDpfXZJAM295YXAOaQ-25" value="Key" style="swimlane;fontStyle=1;align=center;verticalAlign=top;childLayout=stackLayout;horizontal=1;startSize=26;horizontalStack=0;resizeParent=1;resizeParentMax=0;resizeLast=0;collapsible=1;marginBottom=0;" parent="1" vertex="1">
          <mxGeometry x="340" y="130" width="160" height="60" as="geometry" />
        </mxCell>
        <mxCell id="YFqDpfXZJAM295YXAOaQ-110" value="- number: int" style="text;strokeColor=none;fillColor=none;align=left;verticalAlign=top;spacingLeft=4;spacingRight=4;overflow=hidden;rotatable=0;points=[[0,0.5],[1,0.5]];portConstraint=eastwest;" parent="YFqDpfXZJAM295YXAOaQ-25" vertex="1">
          <mxGeometry y="26" width="160" height="26" as="geometry" />
        </mxCell>
        <mxCell id="YFqDpfXZJAM295YXAOaQ-27" value="" style="line;strokeWidth=1;fillColor=none;align=left;verticalAlign=middle;spacingTop=-1;spacingLeft=3;spacingRight=3;rotatable=0;labelPosition=right;points=[];portConstraint=eastwest;strokeColor=inherit;" parent="YFqDpfXZJAM295YXAOaQ-25" vertex="1">
          <mxGeometry y="52" width="160" height="8" as="geometry" />
        </mxCell>
        <mxCell id="YFqDpfXZJAM295YXAOaQ-30" value="Loan" style="swimlane;fontStyle=1;align=center;verticalAlign=top;childLayout=stackLayout;horizontal=1;startSize=26;horizontalStack=0;resizeParent=1;resizeParentMax=0;resizeLast=0;collapsible=1;marginBottom=0;" parent="1" vertex="1">
          <mxGeometry x="380" y="340" width="160" height="34" as="geometry" />
        </mxCell>
        <mxCell id="YFqDpfXZJAM295YXAOaQ-32" value="" style="line;strokeWidth=1;fillColor=none;align=left;verticalAlign=middle;spacingTop=-1;spacingLeft=3;spacingRight=3;rotatable=0;labelPosition=right;points=[];portConstraint=eastwest;strokeColor=inherit;" parent="YFqDpfXZJAM295YXAOaQ-30" vertex="1">
          <mxGeometry y="26" width="160" height="8" as="geometry" />
        </mxCell>
        <mxCell id="YFqDpfXZJAM295YXAOaQ-52" value="Door" style="swimlane;fontStyle=1;align=center;verticalAlign=top;childLayout=stackLayout;horizontal=1;startSize=26;horizontalStack=0;resizeParent=1;resizeParentMax=0;resizeLast=0;collapsible=1;marginBottom=0;" parent="1" vertex="1">
          <mxGeometry x="-230" y="152" width="160" height="34" as="geometry" />
        </mxCell>
        <mxCell id="YFqDpfXZJAM295YXAOaQ-54" value="" style="line;strokeWidth=1;fillColor=none;align=left;verticalAlign=middle;spacingTop=-1;spacingLeft=3;spacingRight=3;rotatable=0;labelPosition=right;points=[];portConstraint=eastwest;strokeColor=inherit;" parent="YFqDpfXZJAM295YXAOaQ-52" vertex="1">
          <mxGeometry y="26" width="160" height="8" as="geometry" />
        </mxCell>
        <mxCell id="YFqDpfXZJAM295YXAOaQ-56" value="" style="endArrow=none;html=1;edgeStyle=orthogonalEdgeStyle;rounded=0;exitX=0.5;exitY=0;exitDx=0;exitDy=0;entryX=0.5;entryY=1;entryDx=0;entryDy=0;" parent="1" source="YFqDpfXZJAM295YXAOaQ-52" target="YFqDpfXZJAM295YXAOaQ-19" edge="1">
          <mxGeometry relative="1" as="geometry">
            <mxPoint x="-140" y="250" as="sourcePoint" />
            <mxPoint x="20" y="250" as="targetPoint" />
          </mxGeometry>
        </mxCell>
        <mxCell id="YFqDpfXZJAM295YXAOaQ-57" value="1..*" style="edgeLabel;resizable=0;html=1;align=left;verticalAlign=bottom;" parent="YFqDpfXZJAM295YXAOaQ-56" connectable="0" vertex="1">
          <mxGeometry x="-1" relative="1" as="geometry">
            <mxPoint x="-20" y="-2" as="offset" />
          </mxGeometry>
        </mxCell>
        <mxCell id="YFqDpfXZJAM295YXAOaQ-58" value="1..1" style="edgeLabel;resizable=0;html=1;align=right;verticalAlign=bottom;" parent="YFqDpfXZJAM295YXAOaQ-56" connectable="0" vertex="1">
          <mxGeometry x="1" relative="1" as="geometry">
            <mxPoint x="20" y="14" as="offset" />
          </mxGeometry>
        </mxCell>
        <mxCell id="YFqDpfXZJAM295YXAOaQ-63" value="has" style="edgeLabel;html=1;align=center;verticalAlign=middle;resizable=0;points=[];" parent="YFqDpfXZJAM295YXAOaQ-56" vertex="1" connectable="0">
          <mxGeometry x="-0.05" relative="1" as="geometry">
            <mxPoint as="offset" />
          </mxGeometry>
        </mxCell>
        <mxCell id="YFqDpfXZJAM295YXAOaQ-59" value="" style="endArrow=none;html=1;edgeStyle=orthogonalEdgeStyle;rounded=0;exitX=0;exitY=0.5;exitDx=0;exitDy=0;entryX=1;entryY=0.25;entryDx=0;entryDy=0;" parent="1" source="hmGFJb7uwMHUu0iun99b-1" target="YFqDpfXZJAM295YXAOaQ-52" edge="1">
          <mxGeometry relative="1" as="geometry">
            <mxPoint x="70" y="170" as="sourcePoint" />
            <mxPoint x="-70" y="170" as="targetPoint" />
          </mxGeometry>
        </mxCell>
        <mxCell id="YFqDpfXZJAM295YXAOaQ-60" value="1..*" style="edgeLabel;resizable=0;html=1;align=left;verticalAlign=bottom;" parent="YFqDpfXZJAM295YXAOaQ-59" connectable="0" vertex="1">
          <mxGeometry x="-1" relative="1" as="geometry">
            <mxPoint x="-20" as="offset" />
          </mxGeometry>
        </mxCell>
        <mxCell id="YFqDpfXZJAM295YXAOaQ-61" value="1..*" style="edgeLabel;resizable=0;html=1;align=right;verticalAlign=bottom;" parent="YFqDpfXZJAM295YXAOaQ-59" connectable="0" vertex="1">
          <mxGeometry x="1" relative="1" as="geometry">
            <mxPoint x="20" as="offset" />
          </mxGeometry>
        </mxCell>
        <mxCell id="YFqDpfXZJAM295YXAOaQ-64" value="open" style="edgeLabel;html=1;align=center;verticalAlign=middle;resizable=0;points=[];" parent="YFqDpfXZJAM295YXAOaQ-59" vertex="1" connectable="0">
          <mxGeometry x="-0.0497" y="3" relative="1" as="geometry">
            <mxPoint x="-4" y="-3" as="offset" />
          </mxGeometry>
        </mxCell>
        <mxCell id="YFqDpfXZJAM295YXAOaQ-90" value="" style="endArrow=none;html=1;edgeStyle=orthogonalEdgeStyle;rounded=0;exitX=0.5;exitY=1;exitDx=0;exitDy=0;entryX=0.5;entryY=0;entryDx=0;entryDy=0;" parent="1" source="YFqDpfXZJAM295YXAOaQ-11" target="YFqDpfXZJAM295YXAOaQ-2" edge="1">
          <mxGeometry relative="1" as="geometry">
            <mxPoint x="310" y="170" as="sourcePoint" />
            <mxPoint x="470" y="170" as="targetPoint" />
          </mxGeometry>
        </mxCell>
        <mxCell id="YFqDpfXZJAM295YXAOaQ-91" value="1..1" style="edgeLabel;resizable=0;html=1;align=left;verticalAlign=bottom;" parent="YFqDpfXZJAM295YXAOaQ-90" connectable="0" vertex="1">
          <mxGeometry x="-1" relative="1" as="geometry">
            <mxPoint y="24" as="offset" />
          </mxGeometry>
        </mxCell>
        <mxCell id="YFqDpfXZJAM295YXAOaQ-92" value="1..*" style="edgeLabel;resizable=0;html=1;align=right;verticalAlign=bottom;" parent="YFqDpfXZJAM295YXAOaQ-90" connectable="0" vertex="1">
          <mxGeometry x="1" relative="1" as="geometry" />
        </mxCell>
        <mxCell id="YFqDpfXZJAM295YXAOaQ-103" value="makes" style="edgeLabel;html=1;align=center;verticalAlign=middle;resizable=0;points=[];" parent="YFqDpfXZJAM295YXAOaQ-90" vertex="1" connectable="0">
          <mxGeometry x="0.0175" y="2" relative="1" as="geometry">
            <mxPoint as="offset" />
          </mxGeometry>
        </mxCell>
        <mxCell id="YFqDpfXZJAM295YXAOaQ-93" value="" style="endArrow=none;html=1;edgeStyle=orthogonalEdgeStyle;rounded=0;entryX=0.75;entryY=0;entryDx=0;entryDy=0;exitX=0.5;exitY=1;exitDx=0;exitDy=0;" parent="1" source="YFqDpfXZJAM295YXAOaQ-2" target="YFqDpfXZJAM295YXAOaQ-30" edge="1">
          <mxGeometry relative="1" as="geometry">
            <mxPoint x="150" y="350" as="sourcePoint" />
            <mxPoint x="310" y="350" as="targetPoint" />
          </mxGeometry>
        </mxCell>
        <mxCell id="YFqDpfXZJAM295YXAOaQ-94" value="1..1" style="edgeLabel;resizable=0;html=1;align=left;verticalAlign=bottom;" parent="YFqDpfXZJAM295YXAOaQ-93" connectable="0" vertex="1">
          <mxGeometry x="-1" relative="1" as="geometry">
            <mxPoint x="-30" y="20" as="offset" />
          </mxGeometry>
        </mxCell>
        <mxCell id="YFqDpfXZJAM295YXAOaQ-95" value="0..*" style="edgeLabel;resizable=0;html=1;align=right;verticalAlign=bottom;" parent="YFqDpfXZJAM295YXAOaQ-93" connectable="0" vertex="1">
          <mxGeometry x="1" relative="1" as="geometry" />
        </mxCell>
        <mxCell id="YFqDpfXZJAM295YXAOaQ-146" value="required" style="edgeLabel;html=1;align=center;verticalAlign=middle;resizable=0;points=[];" parent="YFqDpfXZJAM295YXAOaQ-93" vertex="1" connectable="0">
          <mxGeometry x="-0.2187" relative="1" as="geometry">
            <mxPoint as="offset" />
          </mxGeometry>
        </mxCell>
        <mxCell id="YFqDpfXZJAM295YXAOaQ-96" value="" style="endArrow=none;html=1;edgeStyle=orthogonalEdgeStyle;rounded=0;exitX=0.5;exitY=1;exitDx=0;exitDy=0;entryX=0.25;entryY=0;entryDx=0;entryDy=0;" parent="1" source="YFqDpfXZJAM295YXAOaQ-25" target="YFqDpfXZJAM295YXAOaQ-30" edge="1">
          <mxGeometry relative="1" as="geometry">
            <mxPoint x="140" y="360" as="sourcePoint" />
            <mxPoint x="300" y="360" as="targetPoint" />
          </mxGeometry>
        </mxCell>
        <mxCell id="YFqDpfXZJAM295YXAOaQ-97" value="1..1" style="edgeLabel;resizable=0;html=1;align=left;verticalAlign=bottom;" parent="YFqDpfXZJAM295YXAOaQ-96" connectable="0" vertex="1">
          <mxGeometry x="-1" relative="1" as="geometry">
            <mxPoint y="20" as="offset" />
          </mxGeometry>
        </mxCell>
        <mxCell id="YFqDpfXZJAM295YXAOaQ-98" value="0..*" style="edgeLabel;resizable=0;html=1;align=right;verticalAlign=bottom;" parent="YFqDpfXZJAM295YXAOaQ-96" connectable="0" vertex="1">
          <mxGeometry x="1" relative="1" as="geometry" />
        </mxCell>
        <mxCell id="YFqDpfXZJAM295YXAOaQ-147" value="assigned" style="edgeLabel;html=1;align=center;verticalAlign=middle;resizable=0;points=[];" parent="YFqDpfXZJAM295YXAOaQ-96" vertex="1" connectable="0">
          <mxGeometry x="-0.2196" y="1" relative="1" as="geometry">
            <mxPoint as="offset" />
          </mxGeometry>
        </mxCell>
        <mxCell id="YFqDpfXZJAM295YXAOaQ-123" value="DoorHook" style="swimlane;fontStyle=1;align=center;verticalAlign=top;childLayout=stackLayout;horizontal=1;startSize=26;horizontalStack=0;resizeParent=1;resizeParentMax=0;resizeLast=0;collapsible=1;marginBottom=0;" parent="1" vertex="1">
          <mxGeometry x="-90" y="270" width="160" height="34" as="geometry" />
        </mxCell>
        <mxCell id="YFqDpfXZJAM295YXAOaQ-125" value="" style="line;strokeWidth=1;fillColor=none;align=left;verticalAlign=middle;spacingTop=-1;spacingLeft=3;spacingRight=3;rotatable=0;labelPosition=right;points=[];portConstraint=eastwest;strokeColor=inherit;" parent="YFqDpfXZJAM295YXAOaQ-123" vertex="1">
          <mxGeometry y="26" width="160" height="8" as="geometry" />
        </mxCell>
        <mxCell id="YFqDpfXZJAM295YXAOaQ-127" value="" style="endArrow=none;dashed=1;html=1;rounded=0;entryX=0.5;entryY=0;entryDx=0;entryDy=0;" parent="1" target="YFqDpfXZJAM295YXAOaQ-123" edge="1">
          <mxGeometry width="50" height="50" relative="1" as="geometry">
            <mxPoint x="-10" y="160" as="sourcePoint" />
            <mxPoint x="40" y="250" as="targetPoint" />
          </mxGeometry>
        </mxCell>
        <mxCell id="y_iI_irnuz4M5jo_Wjnp-1" value="DoorName" style="swimlane;fontStyle=1;align=center;verticalAlign=top;childLayout=stackLayout;horizontal=1;startSize=26;horizontalStack=0;resizeParent=1;resizeParentMax=0;resizeLast=0;collapsible=1;marginBottom=0;" parent="1" vertex="1">
          <mxGeometry x="-530" y="130" width="160" height="60" as="geometry" />
        </mxCell>
        <mxCell id="YFqDpfXZJAM295YXAOaQ-53" value="- name: String" style="text;strokeColor=none;fillColor=none;align=left;verticalAlign=top;spacingLeft=4;spacingRight=4;overflow=hidden;rotatable=0;points=[[0,0.5],[1,0.5]];portConstraint=eastwest;" parent="y_iI_irnuz4M5jo_Wjnp-1" vertex="1">
          <mxGeometry y="26" width="160" height="26" as="geometry" />
        </mxCell>
        <mxCell id="y_iI_irnuz4M5jo_Wjnp-3" value="" style="line;strokeWidth=1;fillColor=none;align=left;verticalAlign=middle;spacingTop=-1;spacingLeft=3;spacingRight=3;rotatable=0;labelPosition=right;points=[];portConstraint=eastwest;strokeColor=inherit;" parent="y_iI_irnuz4M5jo_Wjnp-1" vertex="1">
          <mxGeometry y="52" width="160" height="8" as="geometry" />
        </mxCell>
        <mxCell id="y_iI_irnuz4M5jo_Wjnp-5" value="" style="endArrow=none;html=1;edgeStyle=orthogonalEdgeStyle;rounded=0;exitX=1;exitY=0.5;exitDx=0;exitDy=0;entryX=0;entryY=0.5;entryDx=0;entryDy=0;" parent="1" source="YFqDpfXZJAM295YXAOaQ-53" target="YFqDpfXZJAM295YXAOaQ-52" edge="1">
          <mxGeometry relative="1" as="geometry">
            <mxPoint x="-360" y="168.47" as="sourcePoint" />
            <mxPoint x="-240" y="168" as="targetPoint" />
          </mxGeometry>
        </mxCell>
        <mxCell id="y_iI_irnuz4M5jo_Wjnp-6" value="1..1" style="edgeLabel;resizable=0;html=1;align=left;verticalAlign=bottom;" parent="y_iI_irnuz4M5jo_Wjnp-5" connectable="0" vertex="1">
          <mxGeometry x="-1" relative="1" as="geometry" />
        </mxCell>
        <mxCell id="y_iI_irnuz4M5jo_Wjnp-7" value="1..*" style="edgeLabel;resizable=0;html=1;align=right;verticalAlign=bottom;" parent="y_iI_irnuz4M5jo_Wjnp-5" connectable="0" vertex="1">
          <mxGeometry x="1" relative="1" as="geometry" />
        </mxCell>
        <mxCell id="y_iI_irnuz4M5jo_Wjnp-9" value="" style="endArrow=block;endSize=16;endFill=0;html=1;entryX=0.5;entryY=1;entryDx=0;entryDy=0;curved=1;exitX=0.5;exitY=0;exitDx=0;exitDy=0;" parent="1" source="y_iI_irnuz4M5jo_Wjnp-10" target="YFqDpfXZJAM295YXAOaQ-30" edge="1">
          <mxGeometry width="160" relative="1" as="geometry">
            <mxPoint x="460" y="580" as="sourcePoint" />
            <mxPoint x="310" y="580" as="targetPoint" />
          </mxGeometry>
        </mxCell>
        <mxCell id="y_iI_irnuz4M5jo_Wjnp-10" value="Active" style="swimlane;fontStyle=1;align=center;verticalAlign=top;childLayout=stackLayout;horizontal=1;startSize=26;horizontalStack=0;resizeParent=1;resizeParentMax=0;resizeLast=0;collapsible=1;marginBottom=0;" parent="1" vertex="1">
          <mxGeometry x="380" y="547" width="160" height="86" as="geometry" />
        </mxCell>
        <mxCell id="YFqDpfXZJAM295YXAOaQ-31" value="- assignedTime: Time" style="text;strokeColor=none;fillColor=none;align=left;verticalAlign=top;spacingLeft=4;spacingRight=4;overflow=hidden;rotatable=0;points=[[0,0.5],[1,0.5]];portConstraint=eastwest;" parent="y_iI_irnuz4M5jo_Wjnp-10" vertex="1">
          <mxGeometry y="26" width="160" height="26" as="geometry" />
        </mxCell>
        <mxCell id="YFqDpfXZJAM295YXAOaQ-34" value="- assignedDate: Date" style="text;strokeColor=none;fillColor=none;align=left;verticalAlign=top;spacingLeft=4;spacingRight=4;overflow=hidden;rotatable=0;points=[[0,0.5],[1,0.5]];portConstraint=eastwest;" parent="y_iI_irnuz4M5jo_Wjnp-10" vertex="1">
          <mxGeometry y="52" width="160" height="26" as="geometry" />
        </mxCell>
        <mxCell id="y_iI_irnuz4M5jo_Wjnp-12" value="" style="line;strokeWidth=1;fillColor=none;align=left;verticalAlign=middle;spacingTop=-1;spacingLeft=3;spacingRight=3;rotatable=0;labelPosition=right;points=[];portConstraint=eastwest;strokeColor=inherit;" parent="y_iI_irnuz4M5jo_Wjnp-10" vertex="1">
          <mxGeometry y="78" width="160" height="8" as="geometry" />
        </mxCell>
        <mxCell id="y_iI_irnuz4M5jo_Wjnp-14" value="Return" style="swimlane;fontStyle=1;align=center;verticalAlign=top;childLayout=stackLayout;horizontal=1;startSize=26;horizontalStack=0;resizeParent=1;resizeParentMax=0;resizeLast=0;collapsible=1;marginBottom=0;" parent="1" vertex="1">
          <mxGeometry x="165" y="547" width="160" height="86" as="geometry" />
        </mxCell>
        <mxCell id="YFqDpfXZJAM295YXAOaQ-35" value="- returnTime: Time" style="text;strokeColor=none;fillColor=none;align=left;verticalAlign=top;spacingLeft=4;spacingRight=4;overflow=hidden;rotatable=0;points=[[0,0.5],[1,0.5]];portConstraint=eastwest;" parent="y_iI_irnuz4M5jo_Wjnp-14" vertex="1">
          <mxGeometry y="26" width="160" height="26" as="geometry" />
        </mxCell>
        <mxCell id="YFqDpfXZJAM295YXAOaQ-36" value="- returnDate: Date" style="text;strokeColor=none;fillColor=none;align=left;verticalAlign=top;spacingLeft=4;spacingRight=4;overflow=hidden;rotatable=0;points=[[0,0.5],[1,0.5]];portConstraint=eastwest;" parent="y_iI_irnuz4M5jo_Wjnp-14" vertex="1">
          <mxGeometry y="52" width="160" height="26" as="geometry" />
        </mxCell>
        <mxCell id="y_iI_irnuz4M5jo_Wjnp-16" value="" style="line;strokeWidth=1;fillColor=none;align=left;verticalAlign=middle;spacingTop=-1;spacingLeft=3;spacingRight=3;rotatable=0;labelPosition=right;points=[];portConstraint=eastwest;strokeColor=inherit;" parent="y_iI_irnuz4M5jo_Wjnp-14" vertex="1">
          <mxGeometry y="78" width="160" height="8" as="geometry" />
        </mxCell>
        <mxCell id="y_iI_irnuz4M5jo_Wjnp-18" value="Lost" style="swimlane;fontStyle=1;align=center;verticalAlign=top;childLayout=stackLayout;horizontal=1;startSize=26;horizontalStack=0;resizeParent=1;resizeParentMax=0;resizeLast=0;collapsible=1;marginBottom=0;" parent="1" vertex="1">
          <mxGeometry x="580" y="547" width="160" height="58" as="geometry" />
        </mxCell>
        <mxCell id="YFqDpfXZJAM295YXAOaQ-37" value="- charge: int" style="text;strokeColor=none;fillColor=none;align=left;verticalAlign=top;spacingLeft=4;spacingRight=4;overflow=hidden;rotatable=0;points=[[0,0.5],[1,0.5]];portConstraint=eastwest;" parent="y_iI_irnuz4M5jo_Wjnp-18" vertex="1">
          <mxGeometry y="26" width="160" height="24" as="geometry" />
        </mxCell>
        <mxCell id="y_iI_irnuz4M5jo_Wjnp-20" value="" style="line;strokeWidth=1;fillColor=none;align=left;verticalAlign=middle;spacingTop=-1;spacingLeft=3;spacingRight=3;rotatable=0;labelPosition=right;points=[];portConstraint=eastwest;strokeColor=inherit;" parent="y_iI_irnuz4M5jo_Wjnp-18" vertex="1">
          <mxGeometry y="50" width="160" height="8" as="geometry" />
        </mxCell>
        <mxCell id="y_iI_irnuz4M5jo_Wjnp-22" value="" style="endArrow=none;html=1;edgeStyle=orthogonalEdgeStyle;exitX=0.5;exitY=0;exitDx=0;exitDy=0;rounded=1;" parent="1" source="y_iI_irnuz4M5jo_Wjnp-14" edge="1">
          <mxGeometry relative="1" as="geometry">
            <mxPoint x="290" y="487" as="sourcePoint" />
            <mxPoint x="460" y="400" as="targetPoint" />
            <Array as="points">
              <mxPoint x="245" y="497" />
              <mxPoint x="460" y="497" />
            </Array>
          </mxGeometry>
        </mxCell>
        <mxCell id="y_iI_irnuz4M5jo_Wjnp-25" value="" style="endArrow=none;html=1;edgeStyle=orthogonalEdgeStyle;rounded=1;entryX=0.5;entryY=0;entryDx=0;entryDy=0;" parent="1" target="y_iI_irnuz4M5jo_Wjnp-18" edge="1">
          <mxGeometry relative="1" as="geometry">
            <mxPoint x="460" y="400" as="sourcePoint" />
            <mxPoint x="620" y="507" as="targetPoint" />
            <Array as="points">
              <mxPoint x="460" y="497" />
              <mxPoint x="660" y="497" />
            </Array>
          </mxGeometry>
        </mxCell>
        <mxCell id="y_iI_irnuz4M5jo_Wjnp-26" value="{complete, disjoint}" style="edgeLabel;resizable=0;html=1;align=left;verticalAlign=bottom;" parent="y_iI_irnuz4M5jo_Wjnp-25" connectable="0" vertex="1">
          <mxGeometry x="-1" relative="1" as="geometry">
            <mxPoint y="30" as="offset" />
          </mxGeometry>
        </mxCell>
        <mxCell id="y_iI_irnuz4M5jo_Wjnp-27" value="child" style="edgeLabel;resizable=0;html=1;align=right;verticalAlign=bottom;" parent="y_iI_irnuz4M5jo_Wjnp-25" connectable="0" vertex="1">
          <mxGeometry x="1" relative="1" as="geometry" />
        </mxCell>
        <mxCell id="y_iI_irnuz4M5jo_Wjnp-28" value="" style="endArrow=none;html=1;edgeStyle=orthogonalEdgeStyle;rounded=1;exitX=1;exitY=0.5;exitDx=0;exitDy=0;entryX=1;entryY=0.5;entryDx=0;entryDy=0;" parent="1" source="YFqDpfXZJAM295YXAOaQ-20" target="YFqDpfXZJAM295YXAOaQ-3" edge="1">
          <mxGeometry relative="1" as="geometry">
            <mxPoint x="151.1199999999999" y="-62.16599999999994" as="sourcePoint" />
            <mxPoint x="210" y="40" as="targetPoint" />
            <Array as="points">
              <mxPoint x="-70" y="-62" />
              <mxPoint x="790" y="-62" />
              <mxPoint x="790" y="169" />
            </Array>
          </mxGeometry>
        </mxCell>
        <mxCell id="y_iI_irnuz4M5jo_Wjnp-29" value="1..1" style="edgeLabel;resizable=0;html=1;align=left;verticalAlign=bottom;" parent="y_iI_irnuz4M5jo_Wjnp-28" connectable="0" vertex="1">
          <mxGeometry x="-1" relative="1" as="geometry">
            <mxPoint as="offset" />
          </mxGeometry>
        </mxCell>
        <mxCell id="y_iI_irnuz4M5jo_Wjnp-30" value="1..1" style="edgeLabel;resizable=0;html=1;align=right;verticalAlign=bottom;" parent="y_iI_irnuz4M5jo_Wjnp-28" connectable="0" vertex="1">
          <mxGeometry x="1" relative="1" as="geometry">
            <mxPoint x="20" as="offset" />
          </mxGeometry>
        </mxCell>
        <mxCell id="6dUcG9sSdq_Z_c5InPCF-1" value="Building" style="swimlane;fontStyle=1;align=center;verticalAlign=top;childLayout=stackLayout;horizontal=1;startSize=26;horizontalStack=0;resizeParent=1;resizeParentMax=0;resizeLast=0;collapsible=1;marginBottom=0;" parent="1" vertex="1">
          <mxGeometry x="-230" y="-280" width="160" height="60" as="geometry" />
        </mxCell>
        <mxCell id="6dUcG9sSdq_Z_c5InPCF-2" value="- name: String" style="text;strokeColor=none;fillColor=none;align=left;verticalAlign=top;spacingLeft=4;spacingRight=4;overflow=hidden;rotatable=0;points=[[0,0.5],[1,0.5]];portConstraint=eastwest;" parent="6dUcG9sSdq_Z_c5InPCF-1" vertex="1">
          <mxGeometry y="26" width="160" height="26" as="geometry" />
        </mxCell>
        <mxCell id="6dUcG9sSdq_Z_c5InPCF-3" value="" style="line;strokeWidth=1;fillColor=none;align=left;verticalAlign=middle;spacingTop=-1;spacingLeft=3;spacingRight=3;rotatable=0;labelPosition=right;points=[];portConstraint=eastwest;strokeColor=inherit;" parent="6dUcG9sSdq_Z_c5InPCF-1" vertex="1">
          <mxGeometry y="52" width="160" height="8" as="geometry" />
        </mxCell>
        <mxCell id="6dUcG9sSdq_Z_c5InPCF-5" value="" style="endArrow=none;html=1;edgeStyle=orthogonalEdgeStyle;rounded=0;entryX=0.5;entryY=0;entryDx=0;entryDy=0;exitX=0.5;exitY=1;exitDx=0;exitDy=0;" parent="1" source="6dUcG9sSdq_Z_c5InPCF-1" target="YFqDpfXZJAM295YXAOaQ-19" edge="1">
          <mxGeometry relative="1" as="geometry">
            <mxPoint x="-150" y="-220" as="sourcePoint" />
            <mxPoint x="-70" y="-20" as="targetPoint" />
          </mxGeometry>
        </mxCell>
        <mxCell id="6dUcG9sSdq_Z_c5InPCF-6" value="1..1" style="edgeLabel;resizable=0;html=1;align=left;verticalAlign=bottom;" parent="6dUcG9sSdq_Z_c5InPCF-5" connectable="0" vertex="1">
          <mxGeometry x="-1" relative="1" as="geometry">
            <mxPoint y="20" as="offset" />
          </mxGeometry>
        </mxCell>
        <mxCell id="6dUcG9sSdq_Z_c5InPCF-7" value="1..*" style="edgeLabel;resizable=0;html=1;align=right;verticalAlign=bottom;" parent="6dUcG9sSdq_Z_c5InPCF-5" connectable="0" vertex="1">
          <mxGeometry x="1" relative="1" as="geometry" />
        </mxCell>
        <mxCell id="hmGFJb7uwMHUu0iun99b-1" value="Hook" style="swimlane;fontStyle=1;align=center;verticalAlign=top;childLayout=stackLayout;horizontal=1;startSize=26;horizontalStack=0;resizeParent=1;resizeParentMax=0;resizeLast=0;collapsible=1;marginBottom=0;" parent="1" vertex="1">
          <mxGeometry x="60" y="130" width="160" height="60" as="geometry" />
        </mxCell>
        <mxCell id="hmGFJb7uwMHUu0iun99b-2" value="- number: int" style="text;strokeColor=none;fillColor=none;align=left;verticalAlign=top;spacingLeft=4;spacingRight=4;overflow=hidden;rotatable=0;points=[[0,0.5],[1,0.5]];portConstraint=eastwest;" parent="hmGFJb7uwMHUu0iun99b-1" vertex="1">
          <mxGeometry y="26" width="160" height="26" as="geometry" />
        </mxCell>
        <mxCell id="hmGFJb7uwMHUu0iun99b-3" value="" style="line;strokeWidth=1;fillColor=none;align=left;verticalAlign=middle;spacingTop=-1;spacingLeft=3;spacingRight=3;rotatable=0;labelPosition=right;points=[];portConstraint=eastwest;strokeColor=inherit;" parent="hmGFJb7uwMHUu0iun99b-1" vertex="1">
          <mxGeometry y="52" width="160" height="8" as="geometry" />
        </mxCell>
        <mxCell id="hmGFJb7uwMHUu0iun99b-5" value="" style="endArrow=none;html=1;edgeStyle=orthogonalEdgeStyle;rounded=0;exitX=1;exitY=0.25;exitDx=0;exitDy=0;entryX=0;entryY=0.25;entryDx=0;entryDy=0;" parent="1" source="hmGFJb7uwMHUu0iun99b-1" target="YFqDpfXZJAM295YXAOaQ-25" edge="1">
          <mxGeometry relative="1" as="geometry">
            <mxPoint x="230" y="159.5" as="sourcePoint" />
            <mxPoint x="330" y="160" as="targetPoint" />
            <Array as="points" />
          </mxGeometry>
        </mxCell>
        <mxCell id="hmGFJb7uwMHUu0iun99b-6" value="1..1" style="edgeLabel;resizable=0;html=1;align=left;verticalAlign=bottom;" parent="hmGFJb7uwMHUu0iun99b-5" connectable="0" vertex="1">
          <mxGeometry x="-1" relative="1" as="geometry" />
        </mxCell>
        <mxCell id="hmGFJb7uwMHUu0iun99b-7" value="0..*" style="edgeLabel;resizable=0;html=1;align=right;verticalAlign=bottom;" parent="hmGFJb7uwMHUu0iun99b-5" connectable="0" vertex="1">
          <mxGeometry x="1" relative="1" as="geometry" />
        </mxCell>
        <mxCell id="hmGFJb7uwMHUu0iun99b-8" value="is copied to" style="edgeLabel;html=1;align=center;verticalAlign=middle;resizable=0;points=[];" parent="hmGFJb7uwMHUu0iun99b-5" vertex="1" connectable="0">
          <mxGeometry x="-0.3" y="-4" relative="1" as="geometry">
            <mxPoint x="18" y="-9" as="offset" />
          </mxGeometry>
        </mxCell>
      </root>
    </mxGraphModel>
  </diagram>
</mxfile>
